<svg id="Layer_1" data-name="Layer 1" xmlns="http://www.w3.org/2000/svg" viewBox="0 0 159 150"><defs><style>.cls-1{fill:#fff;}</style></defs><title>msb trang</title><path class="cls-1" d="M119.71,137h-104q0-20.81.64-24.65,1.27-5.76,22.07-13.76,12.8-4.82,14.4-6.57t1.6-11a9.68,9.68,0,0,0-2.56-6.23q-2.58-3-3.84-11a11.94,11.94,0,0,0-1.44-4.48,24.3,24.3,0,0,1-2.08-7,9.88,9.88,0,0,1-.16-4.65,15.6,15.6,0,0,0,.48-2.72q-.64-4.47-1-9.27c-.43-4.28,1.33-8.91,5.28-13.93s10.08-7.53,18.39-7.53,14.5,2.56,18.56,7.69S92,31.47,91.56,35.53q-.32,4.8-1,9.27a10.18,10.18,0,0,0,.64,2.56,9,9,0,0,1,0,4.81c-.64,3.42-1.39,5.76-2.23,7a10,10,0,0,0-1.6,4.48q-1.29,8-3.84,11A9.57,9.57,0,0,0,81,81v6.41a9.61,9.61,0,0,0,1,3.52,5.37,5.37,0,0,0,2.88,3q1.92.81,6.07,2.4c.64.22,2.67,1,6.08,2.25q20.79,8,22.07,13.76.65,3.86.64,15Zm21.76-39.37q16.31,6.09,16.95,10.56l.64,28.81H127.71q0-22.73-.32-24.65a25.88,25.88,0,0,0-.8-4.16c-.32-1.07-1.87-2.77-4.64-5.12a45.26,45.26,0,0,0-12.15-6.73c-.64-.21-1.66-.58-3-1.12s-2.4-.9-3-1.12A18.23,18.23,0,0,0,106,92.82c.64-.42,1.16-.8,1.6-1.12a2.24,2.24,0,0,0,.8-1.44,10.62,10.62,0,0,0,.16-1.44V85.14a11.15,11.15,0,0,0-1.92-5.93q-1.92-3-2.88-9.11a12.62,12.62,0,0,0-1.12-3.52,29.39,29.39,0,0,1-1.76-5.45,5.59,5.59,0,0,1-.16-3.52,16.77,16.77,0,0,0,.48-2.24,26.8,26.8,0,0,0-.32-3.2,26.7,26.7,0,0,1-.32-3.85c-.22-3.4,1.17-7,4.16-10.87s7.68-5.77,14.08-5.77,11.13,2,14.23,5.93,4.52,7.51,4.32,10.71a29.91,29.91,0,0,1-.32,3.85,24.8,24.8,0,0,0-.32,3.2,7.67,7.67,0,0,0,.48,2.08,6.37,6.37,0,0,1-.16,3.68,31,31,0,0,1-1.76,5.45,12,12,0,0,0-1.12,3.52,24.2,24.2,0,0,1-3,9.27A10.89,10.89,0,0,0,129,85.14c0,4.48.53,7.16,1.6,8Q131.22,93.47,141.47,97.63Z"/><path class="cls-1" d="M23.12,58.71V47.05a3.7,3.7,0,0,0-3.71-3.7h-.26a3.69,3.69,0,0,0-3.7,3.7V58.71H4.38A3.71,3.71,0,0,0,.67,62.42h0a3.71,3.71,0,0,0,3.71,3.7H15.45V77.91a3.7,3.7,0,0,0,3.7,3.7h.26a3.71,3.71,0,0,0,3.71-3.7V66.12H34.19a3.7,3.7,0,0,0,3.7-3.7h0a3.71,3.71,0,0,0-3.7-3.71Z"/></svg>